<svg xmlns="http://www.w3.org/2000/svg" fill="none" stroke="currentColor" stroke-width="1.5" class="w-6 h-6" viewBox="0 0 24 24">
  <path stroke-linecap="round" stroke-linejoin="round" d="M6 6.88V6a2.25 2.25 0 0 1 2.25-2.25h7.5A2.25 2.25 0 0 1 18 6v.88m-12 0c.23-.08.49-.13.75-.13h10.5c.26 0 .52.04.75.13m-12 0A2.25 2.25 0 0 0 4.5 9v.88m13.5-3A2.25 2.25 0 0 1 19.5 9v.88m0 0a2.25 2.25 0 0 0-.75-.13H5.25c-.26 0-.52.04-.75.13m15 0A2.25 2.25 0 0 1 21 12v6a2.25 2.25 0 0 1-2.25 2.25H5.25A2.25 2.25 0 0 1 3 18v-6c0-.98.63-1.81 1.5-2.12"/>
</svg>